# xmcd CD database file
#
# Track frame offsets:
#	150
#	17437
#	34721
#	53586
#	68301
#	87921
#	102228
#	124315
#	137328
#	154750
#	167288
#	182604
#	204589
#	217090
#	234607
#	252004
#
# Disc length: 3568 seconds
#
# Revision: 0
# Processed by: cddbd v1.5.1PL0 Copyright (c) Steve Scherf et al.
# Submitted via: CDex 1.51
#
DISCID=c50dee10
DTITLE=Papa Joes Jazzmen - The best in twenty years 2CD
DYEAR=1900
DGENRE=Jazz
TTITLE0=Bei mir bist du scheen
TTITLE1=Just squeeze me
TTITLE2=Theres yes, yes in your eyes
TTITLE3=Peptite fleur
TTITLE4=If I had a talking picture
TTITLE5=My heart belongs to daddy
TTITLE6=As sweet as bear meat
TTITLE7=Creole Jazz
TTITLE8=Perdidio Street Blues
TTITLE9=Harlem Bound
TTITLE10=Home
TTITLE11=Avalon
TTITLE12=Whistlin Rufus
TTITLE13=Stevedore Stomp
TTITLE14=On a slowboat to China
TTITLE15=Grandpa's spells
EXTD=
EXTT0=
EXTT1=
EXTT2=
EXTT3=
EXTT4=
EXTT5=
EXTT6=
EXTT7=
EXTT8=
EXTT9=
EXTT10=
EXTT11=
EXTT12=
EXTT13=
EXTT14=
EXTT15=
PLAYORDER=
